<?xml version="1.0" standalone="no"?>
<!DOCTYPE svg PUBLIC "-//W3C//DTD SVG 20010904//EN"
 "http://www.w3.org/TR/2001/REC-SVG-20010904/DTD/svg10.dtd">
<svg version="1.0" xmlns="http://www.w3.org/2000/svg"
 width="450.000000pt" height="267.000000pt" viewBox="0 0 450.000000 267.000000"
 preserveAspectRatio="xMidYMid meet">

<g transform="translate(0.000000,267.000000) scale(0.100000,-0.100000)"
fill="#3b82f6" stroke="none">
<path d="M2041 2398 c-45 -134 -103 -306 -129 -383 l-48 -140 -922 -3 -922 -2
0 -530 0 -530 918 -2 917 -3 131 -389 c72 -215 135 -391 140 -392 5 -2 68 173
139 389 l130 392 1043 3 1042 2 0 125 0 125 -41 -29 c-67 -49 -127 -64 -237
-59 -112 5 -160 24 -230 92 -83 79 -118 183 -110 328 5 73 11 100 37 152 37
76 101 138 179 174 50 23 70 27 158 27 97 0 104 -2 173 -37 l71 -36 0 99 0 99
-1044 0 -1044 0 -129 385 c-70 212 -131 385 -135 385 -3 0 -43 -109 -87 -242z
m221 -191 c59 -175 108 -323 108 -328 0 -5 -51 -9 -115 -9 l-115 0 1 343 c0
188 3 335 6 327 4 -8 55 -158 115 -333z m-142 253 c0 -38 -4 -70 -8 -70 -5 0
-17 6 -27 14 -19 13 -19 15 -2 70 10 31 22 56 28 56 5 0 9 -31 9 -70z m-17
-88 c12 -11 17 -30 17 -64 0 -27 -3 -48 -7 -46 -5 2 -25 14 -45 28 -39 26 -39
28 -17 88 9 24 18 23 52 -6z m-6 -121 c17 -12 22 -26 23 -58 0 -24 -4 -43 -10
-43 -5 0 -33 16 -61 36 -33 24 -48 42 -45 51 4 8 9 26 12 39 7 27 9 26 81 -25z
m-36 -91 l59 -41 0 -124 0 -125 -119 0 -120 0 41 120 40 120 49 -36 c27 -19
49 -31 49 -25 0 5 -20 24 -45 42 -25 18 -45 35 -45 39 0 13 22 70 27 70 2 0
31 -18 64 -40z m1565 -425 c50 -15 144 -68 144 -82 0 -5 -10 -21 -23 -37 l-23
-28 -60 33 c-54 31 -66 34 -144 34 -96 0 -140 -18 -197 -77 -115 -120 -104
-356 21 -466 48 -42 98 -55 194 -51 72 4 86 8 127 37 25 17 49 32 54 32 4 0
18 -12 32 -26 l24 -26 -39 -34 c-66 -57 -134 -77 -251 -72 -115 5 -162 23
-233 92 -83 78 -118 183 -110 326 8 138 69 245 176 308 88 51 211 66 308 37z
m-3338 -7 c14 -19 271 -485 281 -510 6 -17 34 29 153 248 l146 269 51 3 51 3
0 -385 0 -386 -45 0 -45 0 -2 296 -3 296 -131 -238 c-131 -239 -131 -239 -164
-239 -34 0 -34 0 -170 243 l-135 242 -3 -300 -2 -300 -45 0 -45 0 0 385 0 385
49 0 c27 0 53 -6 59 -12z m1347 -375 l153 -383 -48 0 c-26 0 -52 6 -58 13 -5
6 -26 53 -45 102 l-34 90 -171 3 -170 2 -32 -82 c-46 -121 -52 -128 -105 -128
-25 0 -45 3 -45 6 0 4 68 177 151 386 l151 379 51 -3 50 -3 152 -382z m563 90
c-4 -325 -7 -344 -66 -406 -47 -50 -93 -67 -179 -67 -97 0 -107 6 -98 54 l7
36 73 0 c58 0 77 4 99 21 58 46 60 58 64 372 l4 287 50 0 50 0 -4 -297z m292
122 l0 -175 200 0 200 0 0 175 0 175 55 0 55 0 0 -385 0 -385 -55 0 -55 0 0
175 0 175 -200 0 -200 0 0 -175 0 -175 -55 0 -55 0 0 385 0 385 55 0 55 0 0
-175z m-372 -1110 c1 -194 -2 -345 -6 -340 -11 12 -232 665 -232 683 0 10 27
12 118 10 l117 -3 3 -350z m252 343 c0 -25 -75 -238 -84 -238 -5 0 -23 10 -40
23 -44 33 -56 39 -56 29 0 -5 21 -23 46 -42 42 -30 45 -36 40 -64 -10 -49 -20
-51 -80 -10 l-55 39 -1 138 0 137 115 0 c83 0 115 -3 115 -12z m-175 -318 c56
-39 59 -43 45 -85 l-12 -35 -44 31 c-41 28 -44 33 -44 74 0 25 3 45 6 45 3 0
25 -14 49 -30z m25 -140 c0 -8 -21 -73 -26 -78 -1 -2 -14 4 -28 13 -23 15 -26
24 -26 71 l0 54 40 -26 c22 -15 40 -30 40 -34z m-43 -92 c9 -7 8 -21 -4 -56
-25 -74 -33 -72 -33 7 0 73 2 76 37 49z"/>
<path d="M1425 1605 c-5 -11 -35 -90 -68 -175 -33 -85 -62 -161 -64 -167 -4
-10 27 -13 136 -13 78 0 141 2 141 5 0 3 -28 76 -61 163 -34 86 -65 168 -69
182 -7 24 -8 24 -15 5z"/>
<path d="M4160 1651 c-110 -36 -180 -126 -195 -252 -18 -146 61 -296 173 -330
22 -6 75 -10 120 -8 72 4 86 8 127 37 53 37 53 37 77 15 17 -16 18 -7 18 252
0 259 -1 267 -18 245 l-18 -22 -58 32 c-48 27 -71 34 -130 36 -39 2 -82 0 -96
-5z"/>
</g>
</svg>
